<svg xmlns="http://www.w3.org/2000/svg"  viewBox="0 0 50 50" width="50px" height="50px"><path d="M0 10H50V12H0zM0 38H50V40H0zM15.722 20.369h-.063l-.005.02h-1.782-.033-.236c-1.543 0-2.894 1.037-3.292 2.527l-.34 1.272h2.886l.254-.95c.007-.018.013-.034.019-.06.008-.034.016-.068.024-.102l.109-.408c.148-.461.394-.841.996-.842.706 0 .68 1.218.517 1.819l.007.003-.5 1.87h-1.782-.113-.075c-1.591 0-2.984 1.069-3.396 2.607l-.754 2.821c-.297 1.11.54 2.2 1.689 2.2h.085L9.93 33.16c.776.026 1.855-.645 2.663-1.325l-.351 1.312h2.886l2.688-10.051C18.184 21.72 17.147 20.369 15.722 20.369zM13.024 30.22c-.483 1.181-1.89 1.057-1.702-.3l.435-1.626c.399-1.124 1.055-1.461 2.095-1.241l.023-.013L13.024 30.22zM8.559 25.492H4.933l-2.047 7.654H0l4.777-17.86h1.61 1.276 4.678l-.624 2.551H6.981l-1.365 5.103h3.567L8.559 25.492zM29.885 20.308h1.918l-6.144 6.951 1.248-4.664C27.268 21.246 28.489 20.308 29.885 20.308zM33.105 20.52c.848.417 1.352 1.393 1.086 2.386l-.686 2.565H29.94l3.412-6.674.015-.019L33.105 20.52zM50 20.389l-.497 1.947h-1.579l-2.134 7.895c-.109.404.192.802.611.807l.76.008-.568 2.1h-2.117c-1.812 0-1.975-1.445-1.559-3.016l2.079-7.793h-1.151l.497-1.947h1.173l.854-3.203 3.339-1.445-1.256 4.648H50zM43.339 20.389l-3.412 12.757H37.04l.302-1.13c-.776.613-1.735 1.167-2.442 1.143l.008-.021c-1.192-.038-2.05-1.173-1.739-2.335l.716-2.678c.018-.069.049-.131.071-.198l2.016-7.539h2.886l-2.405 8.993h-.018l-.144.537c-.157 1.134.799 1.409 1.401.781l2.758-10.312H43.339zM33.346 26.064l-1.23 4.599c-.379 1.416-1.633 2.405-3.085 2.47l-1.582.844L33.346 26.064zM23.822 15.286l-4.777 17.86h-2.886l4.777-17.86H23.822zM27.83 15.286l-4.777 17.86h-2.886l4.777-17.86H27.83zM26.971 33.146c-1.457 0-2.517-1.381-2.141-2.789l.757-2.83h3.62l-1.962 5.618H26.971z"/></svg>